<svg xmlns="http://www.w3.org/2000/svg" xmlns:xlink="http://www.w3.org/1999/xlink" viewBox="0 0 463.17 463.17"><defs><style>.cls-1{fill:#fff;}.cls-2{clip-path:url(#clip-path);}.cls-3{fill:none;}.cls-4{stroke:#000;stroke-miterlimit:10;stroke-width:3px;}</style><clipPath id="clip-path" transform="translate(0 -13.62)"><path d="M252.78,106.64c73.57.52,132.8,63.84,132.3,141.43S324.55,388.14,251,387.62"/></clipPath></defs><g id="Layer_2" data-name="Layer 2"><g id="Layer_1-2" data-name="Layer 1"><path class="cls-1" d="M231.58,475.29A230.09,230.09,0,0,1,68.89,82.51,230.09,230.09,0,0,1,394.28,407.9,228.58,228.58,0,0,1,231.58,475.29Z" transform="translate(0 -13.62)"/><path d="M231.58,16.62a228.65,228.65,0,0,1,89,439.21A228.64,228.64,0,0,1,142.61,34.59a227.12,227.12,0,0,1,89-18m0-3C103.68,13.62,0,117.31,0,245.21S103.68,476.79,231.58,476.79,463.17,373.11,463.17,245.21,359.48,13.62,231.58,13.62Z" transform="translate(0 -13.62)"/><path d="M252.78,106.64c73.57.52,132.8,63.84,132.3,141.43S324.55,388.14,251,387.62" transform="translate(0 -13.62)"/><g class="cls-2"><path class="cls-1" d="M252.3,106.63,252,150.25c51,.36,92,44.26,91.7,98s-42,96.34-93,96.72l-.27,42.61" transform="translate(0 -13.62)"/><path class="cls-3" d="M252.22,107l-.28,43.62c51,.36,92,44.26,91.7,98s-42,96.34-92.94,96.73l-.28,42.6" transform="translate(0 -13.62)"/></g><polygon class="cls-4" points="293.58 66.99 319.27 76.85 326.66 120.42 261.38 95.38 293.58 66.99"/><polygon class="cls-4" points="370.76 121.7 388.34 146.65 370.02 190.85 325.35 127.48 370.76 121.7"/><polygon class="cls-4" points="407.89 221.96 406.74 255.37 373.38 279.88 376.29 194.98 407.89 221.96"/><polygon class="cls-4" points="384.36 327 364.9 350.69 317.89 339.66 367.32 279.49 384.36 327"/><polygon class="cls-4" points="316.07 390.06 291.06 397.99 261.08 366.55 324.65 346.4 316.07 390.06"/><path d="M132.75,311.39V331c0,23.65,5.42,36.82,19.64,36.82,14.6,0,18.37-18.1,18.37-38.74,0-34.17-5.62-44.77-31.66-71.66S99,213.18,99,166.13C99,124.24,108.71,82,152.52,82c44.81.06,51.73,41.88,51.73,76.37v17H167.13V159.7c0-22.13-2.85-35.53-15.29-35.53-12.16,0-15.37,13.85-15.37,34.92,0,22.45,3.25,33.45,24.59,53.9,36.33,35.17,47.46,55.6,47.46,108.78,0,45.09-12.07,87.82-57.36,87.82-44.91,0-55.85-37.46-55.85-79.34V311.39Z" transform="translate(0 -13.62)"/><path class="cls-1" d="M252.75,154.28a1.5,1.5,0,0,0,0-3,1.5,1.5,0,0,0,0,3Z" transform="translate(0 -13.62)"/><path class="cls-1" d="M252.39,153.93a1.5,1.5,0,0,0,0-3,1.5,1.5,0,0,0,0,3Z" transform="translate(0 -13.62)"/><path class="cls-1" d="M243,165a1.5,1.5,0,0,0,0-3,1.5,1.5,0,0,0,0,3Z" transform="translate(0 -13.62)"/><path class="cls-1" d="M242.59,165a1.5,1.5,0,0,0,0-3,1.5,1.5,0,0,0,0,3Z" transform="translate(0 -13.62)"/><path class="cls-1" d="M242.59,165a1.5,1.5,0,0,0,0-3,1.5,1.5,0,0,0,0,3Z" transform="translate(0 -13.62)"/><path class="cls-1" d="M255.24,158.92a1.5,1.5,0,0,0,0-3,1.5,1.5,0,0,0,0,3Z" transform="translate(0 -13.62)"/><path class="cls-1" d="M252,153.57a1.5,1.5,0,0,0,0-3,1.5,1.5,0,0,0,0,3Z" transform="translate(0 -13.62)"/><path class="cls-1" d="M252.21,153.39a1.5,1.5,0,0,0,0-3,1.5,1.5,0,0,0,0,3Z" transform="translate(0 -13.62)"/><path class="cls-1" d="M253.64,166.22a1.5,1.5,0,0,0,0-3,1.5,1.5,0,0,0,0,3Z" transform="translate(0 -13.62)"/><path class="cls-1" d="M250.5,161.16a77.65,77.65,0,0,1-1.16,19l2.95.4a63.74,63.74,0,0,1,.63-15.73l-2.94-.4,0,24.47a1.5,1.5,0,0,0,3,0V176.56a1.5,1.5,0,0,0-3,0v28.21a1.5,1.5,0,0,0,3,0l.1-6.31h-3l.14,17.51a1.5,1.5,0,0,0,3,0l.25-8.06h-3l.06,20.22a1.5,1.5,0,0,0,3,0v-11.3h-3a180,180,0,0,1-.34,23.8l2.94-.4a19.2,19.2,0,0,1-1.4-9.56l-2.94.4A141.6,141.6,0,0,1,250,255.16c-.07,1.93,2.93,1.93,3,0l.59-15.85-2.95.4a84.28,84.28,0,0,1,.75,26.94l2.94-.4a37.69,37.69,0,0,1-2.51-8.92l-2.89.8,1.91,11.06c.3,1.7,2.94,1.25,3-.4a76,76,0,0,1,2.67-19.51l-2.95-.4A198.13,198.13,0,0,1,248.83,278l2.74-.36a5.19,5.19,0,0,1-.5-4.28h-2.9a111.79,111.79,0,0,1,1.34,12.38,1.51,1.51,0,0,0,3,.39,21.75,21.75,0,0,0,1.39-7.54h-3l0,12.49a1.5,1.5,0,0,0,3,0l.12-8h-3a23.34,23.34,0,0,1-1.71,11.35l2.74-.36a2.39,2.39,0,0,1-.07-2c.78-1.74-1.81-3.27-2.59-1.51a5.63,5.63,0,0,0,.07,5.06c.64,1.3,2.3.72,2.74-.35A25.27,25.27,0,0,0,254,283.09c-.18-1.89-3-2-3,0l-.12,8h3l0-12.49a1.5,1.5,0,0,0-3,0,19.48,19.48,0,0,1-1.28,6.75l2.94.4a118.8,118.8,0,0,0-1.44-13.18c-.26-1.54-2.51-1.31-2.9,0a8.28,8.28,0,0,0,.81,6.59,1.51,1.51,0,0,0,2.74-.36,202,202,0,0,0,4.77-29.94c.14-1.71-2.51-2-2.94-.4a79.19,79.19,0,0,0-2.78,20.31l2.95-.4-1.92-11.06c-.33-1.91-3.18-1.08-2.89.8a37.35,37.35,0,0,0,2.51,8.92,1.51,1.51,0,0,0,3-.4,86.61,86.61,0,0,0-.85-27.73c-.34-1.72-2.89-1.23-3,.39L250,255.16h3a145.84,145.84,0,0,0-1.27-24.89c-.24-1.81-2.78-1.13-3,.4A21.11,21.11,0,0,0,250.27,241a1.51,1.51,0,0,0,2.95-.4,180,180,0,0,0,.34-23.8,1.5,1.5,0,0,0-3,0v11.3h3l-.06-20.22a1.5,1.5,0,0,0-3,0l-.25,8.06h3l-.14-17.51a1.5,1.5,0,0,0-3,0l-.1,6.31h3V176.56h-3v12.29h3l0-24.47c0-1.63-2.66-2.11-2.95-.4a66.33,66.33,0,0,0-.74,16.53c.13,1.56,2.61,2.18,2.94.4a81.24,81.24,0,0,0,1.27-19.75c-.11-1.92-3.11-1.93-3,0Z" transform="translate(0 -13.62)"/><path class="cls-1" d="M249.15,290.56c.27,9,.55,18-.24,27-.19,2.12-.51,4.22-.64,6.34a27.16,27.16,0,0,0,.42,6.17,57.51,57.51,0,0,1,1,6.51,22.17,22.17,0,0,1-.63,6.54c-.45,1.87,2.44,2.67,2.9.79a29.71,29.71,0,0,0,0-12.8,29.85,29.85,0,0,1-.69-6.52c.08-2.19.43-4.36.63-6.54.85-9.12.57-18.3.29-27.45-.06-1.92-3.06-1.93-3,0Z" transform="translate(0 -13.62)"/><path class="cls-1" d="M206.59,457.25a1.5,1.5,0,0,0,0-3,1.5,1.5,0,0,0,0,3Z" transform="translate(0 -13.62)"/><path class="cls-1" d="M249.81,319.2a103.28,103.28,0,0,0-2.39,11.31l3,.4q.39-7.47.25-14.93a1.5,1.5,0,0,0-3,0v8.27a1.51,1.51,0,0,0,2.95.39l.86-3.52-2.94-.4c0,2.31,0,4.63,0,6.95a17.42,17.42,0,0,0,1,6.49c.58,1.43,3,1.45,2.94-.4Q252,325.9,252,318c0-1.94-2.88-1.91-3,0a113.4,113.4,0,0,0,.1,15.75,1.52,1.52,0,0,0,2.8.76,7.83,7.83,0,0,0,.9-4.47q0-3.14,0-6.25l0-12.24h-3l.1,18.33a1.5,1.5,0,0,0,3,0q.3-13.69.13-27.4a1.5,1.5,0,0,0-3,0q.17,13.69-.13,27.4h3l-.1-18.33a1.5,1.5,0,0,0-3,0l0,11.24v5.5c0,1.47.36,3.42-.48,4.71l2.79.75A113.4,113.4,0,0,1,252,318h-3q0,7.89.44,15.75l2.95-.4a15.92,15.92,0,0,1-.87-6.13q0-3.25,0-6.51a1.51,1.51,0,0,0-3-.4l-.86,3.53,2.94.4V316h-3q.15,7.47-.25,14.93c-.09,1.65,2.69,2.08,2.94.39A104.28,104.28,0,0,1,252.7,320a1.5,1.5,0,0,0-2.89-.79Z" transform="translate(0 -13.62)"/><path class="cls-1" d="M250,155.16l.08,12a1.5,1.5,0,0,0,2.94.4,24,24,0,0,0,.94-9.45,1.5,1.5,0,0,0-3,0l-.17,7.17c0,1.93,3,1.93,3,0l.16-6.19c.05-1.94-2.89-1.91-3,0q-1.47,24.77-5.09,49.35-1.05,7-2.27,14l2.89.8,7.32-54.23-3-.4.43,59.54a1.5,1.5,0,0,0,3,0q1.59-22.47,1.08-45a1.5,1.5,0,0,0-3,0l0,69.48v19.49a1.5,1.5,0,0,0,3,0l.32-44.13h-3l.19,51.76a1.5,1.5,0,0,0,3,0l.34-14.89h-3l1,27.82a1.5,1.5,0,0,0,3,0l.88-8.89h-3l.11,28h3l-.51-4c-.25-1.86-2.94-2-3,0l-.7,22.37c-.06,1.75-.06,3.52-.17,5.28,0,.66-.16,2.6-1.13,2.57-.72,0-1.08-1.36-1.23-1.91a20,20,0,0,1-.35-4.89c-.21-14.61,2.26-29.08,3.19-43.64.95-14.78.6-29.59.43-44.39s0-29.37.62-44c.34-8.2.84-16.4,1.42-24.59.54-7.52.92-15.32-1.83-22.5a1.51,1.51,0,0,0-2.89,0c-2.22,5.27-1.6,11.44-1.61,17v18.72l0,37.7q0,37.43-.06,74.85c0,14,.17,28.05,1.73,42,.21,1.87,3,2,3,0a381.88,381.88,0,0,1,1.33-39.3c1.1-12.94,3-25.75,5.13-38.56s4.21-25.8,5.09-38.85a358.46,358.46,0,0,0,.1-39.2c-.15-3.7-.33-7.4-.51-11.1-.17-3.34-.05-6.89-.92-10.15-1.54-5.76-6.7-9.25-11.48-12.23a1.51,1.51,0,0,0-2.2.9c-1.17,6-.89,12.15-.91,18.21l0,18.92-.07,37.32q0,18.76-.08,37.51c0,12.23.13,24.49,1.86,36.61,1,6.75,2.44,13.4,3.69,20.1.59,3.2,1.46,6.59,1.33,9.87-.09,2.31-1.72,5.58-4.54,4.51l1.11,1.45c2.25-23.05,4.12-46.12,5.88-69.21.88-11.63,2-23.27,2.29-34.94a205.46,205.46,0,0,0-2.28-34c-1.76-12.6-3.81-25.23-3.46-38,.05-1.93-2.95-1.93-3,0-.31,11.33,1.26,22.57,2.85,33.76s3,22.56,3,34c-.08,11.67-1.16,23.31-2,34.94s-1.76,23.12-2.71,34.67Q252.9,319,251,338.39a1.52,1.52,0,0,0,1.1,1.44,5.91,5.91,0,0,0,6.32-1.82,9.47,9.47,0,0,0,2-7.07,79.21,79.21,0,0,0-1.42-9.18c-.56-3-1.17-6.05-1.76-9.07a181.5,181.5,0,0,1-2.81-18.85c-.55-6.3-.76-12.64-.83-19-.3-25.7.05-51.43.1-77.13l.05-21.65c0-3.63,0-7.26,0-10.89a56.85,56.85,0,0,1,.78-10.51l-2.2.89c4.08,2.55,8.78,5.49,10.09,10.44.8,3,.66,6.28.82,9.35s.31,6.25.44,9.37a382.67,382.67,0,0,1,.12,38.47c-1.45,25.53-7.57,50.52-10,76a382.62,382.62,0,0,0-1.68,43.22h3a347.09,347.09,0,0,1-1.72-37c-.05-12.46,0-24.91,0-37.36l.07-74.9,0-20.72c0-3.42,0-6.84,0-10.27a24.24,24.24,0,0,1,1.49-9.21h-2.89c2.55,6.66,2.27,13.82,1.78,20.82-.53,7.66-1,15.33-1.37,23-.71,15.5-.91,31-.73,46.53s.55,30.93-.56,46.36c-.56,7.7-1.49,15.36-2.19,23-.33,3.75-.62,7.51-.76,11.27a81.22,81.22,0,0,0,0,11.25c.26,2.54,1.53,6,4.63,5.9,3.5-.13,3.9-4.22,4-6.87l.82-26.34h-3l.51,4c.24,1.85,3,2,3,0l-.11-28c0-2-2.81-1.89-3,0l-.88,8.89h3l-1-27.82a1.5,1.5,0,0,0-3,0l-.34,14.89h3L255.74,228a1.5,1.5,0,0,0-3,0l-.32,44.13h3l0-69.48V183.18h-3q.52,22.51-1.08,45h3l-.43-59.54c0-1.62-2.71-2.12-2.94-.4l-7.32,54.23c-.26,1.86,2.55,2.72,2.89.8q4.31-24.72,6.44-49.76.6-7.2,1-14.43h-3l-.16,6.19h3l.17-7.17h-3a21.82,21.82,0,0,1-.83,8.65l3,.4-.08-12a1.5,1.5,0,0,0-3,0Z" transform="translate(0 -13.62)"/></g></g></svg>